<?xml version="1.0" encoding="UTF-8" standalone="no"?>
<svg
        xmlns:inkscape="http://www.inkscape.org/namespaces/inkscape"
        xmlns:sodipodi="http://sodipodi.sourceforge.net/DTD/sodipodi-0.dtd"
        id="Layer_1"
        data-name="Layer 1"
        viewBox="0 0 1102.6786 278.29663"
        version="1.1"
        sodipodi:docname="mongodb.svg"
        width="1102.6786"
        height="278.29663"
        inkscape:version="1.2.1 (9c6d41e410, 2022-07-14)"
        xmlns="http://www.w3.org/2000/svg"
>
    <defs
            id="defs106"/>
    <sodipodi:namedview
            id="namedview104"
            pagecolor="#505050"
            bordercolor="#ffffff"
            borderopacity="1"
            inkscape:showpageshadow="0"
            inkscape:pageopacity="0"
            inkscape:pagecheckerboard="1"
            inkscape:deskcolor="#505050"
            showgrid="false"
            inkscape:zoom="1.0091833"
            inkscape:cx="545.49058"
            inkscape:cy="128.81703"
            inkscape:window-width="1920"
            inkscape:window-height="1043"
            inkscape:window-x="0"
            inkscape:window-y="0"
            inkscape:window-maximized="1"
            inkscape:current-layer="Layer_1"/>
    <path
            d="m 82.464781,28.675591 c -10.81482,-12.762 -20.13269,-25.8139 -22.02478,-28.49223999 a 0.426,0.426 0 0 0 -0.70032,6e-5 C 57.847961,2.861811 48.532101,15.913631 37.717681,28.675591 -54.973729,146.76059 52.347561,226.43066 52.347561,226.43066 l 0.87,0.60461 c 0.8136,12.32611 2.83508,30.041 2.83508,30.041 h 8.07679 c 0,0 2.01288,-17.63849 2.83,-29.96112 l 0.87549,-0.68445 c 0,0 107.320289,-79.67008 14.62986,-197.755109 z M 60.091551,224.69928 h -0.001 c 0,0 -4.81128,-4.10395 -6.10968,-6.1601 l -0.0118,-0.22125 5.81946,-128.560549 a 0.30284,0.30284 0 0 1 0.605,0 l 5.81934,128.560359 -0.0113,0.22077 c -1.29773,2.05597 -6.11005,6.16077 -6.11005,6.16077 z"
            fill="#00684a"
            id="path85"/>
    <path
            d="m 260.51643,198.3767 -44.561,-108.556649 -0.127,-0.31055 h -34.749 v 7.26955 l 5.57911,0.009 a 6.33526,6.33526 0 0 1 6.32373,6.398439 l -1.02734,109.34764 a 6.30543,6.30543 0 0 1 -6.20068,6.27051 l -5.7085,0.0684 v 7.22656 h 33.81641 v -7.22265 l -3.48,-0.0713 a 6.36937,6.36937 0 0 1 -6.20557,-6.334 V 109.45873 l 48.61084,116.56445 a 4.48481,4.48481 0 0 0 8.27832,-0.001 l 47.50147,-113.99122 0.70752,100.417 a 6.34947,6.34947 0 0 1 -6.25684,6.38086 l -3.57178,0.0439 v 7.22656 h 39.57571 v -7.22851 l -5.41895,-0.042 a 6.36249,6.36249 0 0 1 -6.25537,-6.31348 l -0.34228,-109.3291 a 6.3586,6.3586 0 0 1 6.23632,-6.355469 l 5.78174,-0.0557 v -7.26562 h -33.79492 z"
            fill="#00684a"
            id="path87"/>
    <path
            d="m 572.08726,217.13451 a 5.8852,5.8852 0 0 1 -1.69385,-4.3916 v -53.582 c 0,-10.167 -3.01709,-18.20606 -8.96826,-23.89649 -5.94629,-5.68261 -14.11133,-8.56445 -24.26709,-8.56445 -14.33985,0 -25.60449,5.7959 -33.481,17.22754 a 0.65138,0.65138 0 0 1 -1.168,-0.2041 l -3.7041,-14.31153 h -6.19043 l -15.93457,9.1211 -10e-4,5.01855 h 4.11231 a 6.69905,6.69905 0 0 1 4.60547,1.51856 5.85166,5.85166 0 0 1 1.67431,4.56738 v 63.10547 a 5.80863,5.80863 0 0 1 -6.08642,6.08594 h -3.9862 v 7.2705 h 36.64062 v -7.2705 h -3.98632 a 5.80793,5.80793 0 0 1 -6.08643,-6.08594 v -41.7666 a 38.67986,38.67986 0 0 1 3.44385,-15.77735 31.24687,31.24687 0 0 1 10.20117,-12.68066 26.56976,26.56976 0 0 1 16.07275,-4.94043 c 7.02979,0 12.27247,2.21387 15.58155,6.58105 3.33838,4.41407 5.03125,10.11329 5.03125,16.9375 v 51.64649 a 5.80641,5.80641 0 0 1 -6.085,6.08594 h -3.98731 v 7.2705 h 36.6416 v -7.2705 h -3.98681 a 5.88219,5.88219 0 0 1 -4.39209,-1.69437 z"
            fill="#00684a"
            id="path89"/>
    <path
            d="m 907.81533,97.702871 a 71.48264,71.48264 0 0 0 -33.93852,-8.19336 h -48.04395 v 7.27054 h 4.65479 a 7.8375,7.8375 0 0 1 7.24853,7.247999 v 107.55177 a 6.952,6.952 0 0 1 -2.2749,4.97364 6.8676,6.8676 0 0 1 -4.97363,2.27539 h -4.65479 v 7.2705 h 48.04395 a 71.48252,71.48252 0 0 0 33.93852,-8.19336 61.78526,61.78526 0 0 0 24.5058,-23.626 c 6.0225,-10.22949 9.0762,-22.502 9.0762,-36.47656 0,-13.97071 -3.0537,-26.24219 -9.0762,-36.47461 a 61.81,61.81 0 0 0 -24.5058,-23.625949 z m 14.374,60.100589 c 0,12.76855 -2.294,23.63867 -6.8194,32.31054 -4.5156,8.65137 -10.5439,15.165 -17.915,19.36133 a 48.61918,48.61918 0 0 1 -24.35253,6.32715 h -9.68554 a 6.86115,6.86115 0 0 1 -4.97364,-2.27539 6.94476,6.94476 0 0 1 -2.27441,-4.97363 v -101.499 a 6.8669,6.8669 0 0 1 2.27441,-4.97363 6.96359,6.96359 0 0 1 4.97364,-2.274419 h 9.68557 a 48.61918,48.61918 0 0 1 24.3525,6.327149 c 7.3682,4.19336 13.3955,10.707 17.915,19.36035 4.5254,8.67576 6.8194,19.54587 6.8194,32.30955 z"
            fill="#00684a"
            id="path91"/>
    <path
            d="m 1054.5389,165.03197 c -4.3613,-5.06152 -12.8672,-9.374 -22.9346,-11.66992 13.8447,-6.873 20.8623,-16.64746 20.8623,-29.06836 a 31.33147,31.33147 0 0 0 -5.414,-18.10352 35.90007,35.90007 0 0 0 -15.2188,-12.278319 55.03736,55.03736 0 0 0 -22.6738,-4.40234 h -53.89057 v 7.27054 h 4.2676 a 7.83542,7.83542 0 0 1 7.248,7.247999 v 107.55177 a 6.95524,6.95524 0 0 1 -2.2744,4.97364 6.86762,6.86762 0 0 1 -4.9736,2.27539 h -4.6553 v 7.2705 h 58.50487 a 66.18011,66.18011 0 0 0 24.6885,-4.49121 40.798,40.798 0 0 0 17.8408,-13.2373 c 4.372,-5.8086 6.5889,-12.916 6.5889,-21.124 a 33.03684,33.03684 0 0 0 -7.9659,-22.21487 z m -67.04587,48.49512 a 6.94762,6.94762 0 0 1 -2.2754,-4.97363 v -48.3125 h 27.78127 c 9.7597,0 17.334,2.52734 22.5097,7.51171 5.168,4.98047 7.7881,11.54 7.7881,19.49414 a 29.60114,29.60114 0 0 1 -3.4297,13.8125 26.80127,26.80127 0 0 1 -10.2734,10.64942 c -4.5449,2.71582 -10.1289,4.09375 -16.5947,4.09375 h -20.53227 a 6.86115,6.86115 0 0 1 -4.9736,-2.27543 z m -2.2754,-63.583 v -42.88966 a 6.8676,6.8676 0 0 1 2.2754,-4.97363 6.96357,6.96357 0 0 1 4.9736,-2.274419 h 13.20607 c 9.4922,0 16.539,2.358399 20.9433,7.010749 4.4082,4.66113 6.6436,10.7373 6.6436,18.05859 0,7.582 -2.0742,13.72559 -6.166,18.25977 -4.0801,4.51757 -10.3096,6.80859 -18.5156,6.80859 z"
            fill="#00684a"
            id="path93"/>
    <path
            d="m 432.57993,133.05638 a 54.78868,54.78868 0 0 0 -51.23144,0.001 47.34153,47.34153 0 0 0 -18.30274,18.00684 56.14574,56.14574 0 0 0 0,53.38183 47.31,47.31 0 0 0 18.30274,18.00879 54.78865,54.78865 0 0 0 51.23144,-10e-4 47.30644,47.30644 0 0 0 18.30225,-18.00779 56.14215,56.14215 0 0 0 0,-53.38183 47.35307,47.35307 0 0 0 -18.30225,-18.00784 z m 7.395,44.69922 c 0,12.34766 -3.02441,22.27637 -8.98974,29.51075 -5.94336,7.20605 -14.02539,10.86035 -24.021,10.86035 -9.99853,0 -18.08008,-3.6543 -24.02051,-10.86035 -5.96484,-7.23047 -8.98926,-17.15918 -8.98926,-29.51075 0,-12.35157 3.02442,-22.28027 8.98926,-29.51172 5.93994,-7.20605 14.02149,-10.85937 24.02051,-10.85937 9.99609,0 18.07813,3.65332 24.021,10.85937 5.96535,7.23536 8.98976,17.16407 8.98976,29.51172 z"
            fill="#00684a"
            id="path95"/>
    <path
            d="m 785.51206,133.05638 a 54.78868,54.78868 0 0 0 -51.23144,0.001 47.34153,47.34153 0 0 0 -18.30274,18.00684 56.14574,56.14574 0 0 0 0,53.38183 47.31,47.31 0 0 0 18.30274,18.00879 54.78865,54.78865 0 0 0 51.23144,-10e-4 47.30644,47.30644 0 0 0 18.30225,-18.00779 56.14574,56.14574 0 0 0 0,-53.38183 47.35307,47.35307 0 0 0 -18.30225,-18.00784 z m 7.395,44.69922 c 0,12.34766 -3.02441,22.27637 -8.98974,29.51075 -5.94336,7.20605 -14.0254,10.86035 -24.021,10.86035 -9.99854,0 -18.08008,-3.6543 -24.02051,-10.86035 -5.96533,-7.23047 -8.98974,-17.15918 -8.98974,-29.51075 0,-12.35058 3.02441,-22.28027 8.98974,-29.51172 5.93994,-7.20605 14.02149,-10.85937 24.02051,-10.85937 9.99609,0 18.07812,3.65332 24.021,10.85937 5.96535,7.23536 8.98976,17.16407 8.98976,29.51172 z"
            fill="#00684a"
            id="path97"/>
    <path
            d="m 643.0565,126.69994 a 47.24308,47.24308 0 0 0 -21.87207,5.08789 39.55411,39.55411 0 0 0 -15.49366,13.86522 35.07131,35.07131 0 0 0 -5.61621,19.19532 33.87906,33.87906 0 0 0 4.29395,16.957 37.5086,37.5086 0 0 0 11.40283,12.35644 l -14.25244,19.374 a 7.88871,7.88871 0 0 0 6.35453,12.56354 h 4.09375 a 30.82784,30.82784 0 0 0 -9.40381,9.66016 25.78546,25.78546 0 0 0 -3.89844,13.44629 c 0,8.585 3.79639,15.66406 11.28321,21.042 7.43408,5.33984 17.82812,8.04688 30.89209,8.04688 a 74.99565,74.99565 0 0 0 25.74218,-4.35938 45.94622,45.94622 0 0 0 19.332,-12.82519 29.89344,29.89344 0 0 0 7.37011,-20.15918 c 0,-8.18262 -3.00146,-14.03809 -10.03662,-19.57911 -6.01953,-4.73437 -15.39258,-7.2373 -27.10449,-7.2373 h -40.0083 a 0.25509,0.25509 0 0 1 -0.2124,-0.39648 l 10.38281,-14.042 a 37.017,37.017 0 0 0 7.69336,2.58594 41.16921,41.16921 0 0 0 8.05078,0.71484 49.19541,49.19541 0 0 0 22.57422,-5.08691 40.11878,40.11878 0 0 0 15.69336,-13.86328 34.64317,34.64317 0 0 0 5.71924,-19.19824 c 0,-7.41895 -3.5586,-20.92774 -13.38428,-27.81641 0.0259,-0.0693 0.0757,-0.0654 0.0918,-0.0605 l 21.54785,2.41016 v -9.86328 h -34.4419 a 50.99092,50.99092 0 0 0 -16.79345,-2.81837 z m 12.04443,62.57129 h -5e-4 a 25.30833,25.30833 0 0 1 -12.04394,3.06152 24.84,24.84 0 0 1 -17.57618,-7.11133 c -4.97168,-4.707 -7.49267,-11.5625 -7.49267,-20.373 0,-8.8105 2.521,-15.666 7.49267,-20.374 a 24.84734,24.84734 0 0 1 17.57618,-7.11035 25.34981,25.34981 0 0 1 12.04394,3.06048 24.2708,24.2708 0 0 1 9.37061,9.17676 c 2.4248,4.06543 3.65429,9.19531 3.65429,15.24707 0,6.05468 -1.22949,11.18457 -3.65429,15.24609 a 24.21122,24.21122 0 0 1 -9.37011,9.17676 z m -27.16358,36.82812 h 27.11231 c 7.53125,0 12.32129,1.46 15.53223,4.7334 a 17.22153,17.22153 0 0 1 4.78955,12.53418 21.6614,21.6614 0 0 1 -8.66651,17.82712 c -5.78906,4.53809 -13.61035,6.83887 -23.24609,6.83887 -8.44385,0 -15.35791,-1.86524 -20.54932,-5.54492 -5.13623,-3.64063 -7.74072,-9.05762 -7.74072,-16.10059 a 21.27324,21.27324 0 0 1 3.63818,-12.10254 23.3766,23.3766 0 0 1 9.13037,-8.18552 z"
            fill="#00684a"
            id="path99"/>
    <path
            d="m 1082.8983,224.88739 a 12.34326,12.34326 0 0 1 -4.6728,-4.6377 13.17237,13.17237 0 0 1 0,-12.894 12.34672,12.34672 0 0 1 4.6728,-4.6377 14.06434,14.06434 0 0 1 13.4209,0 12.33983,12.33983 0 0 1 4.6729,4.6377 13.16563,13.16563 0 0 1 0,12.894 12.33636,12.33636 0 0 1 -4.6729,4.6377 14.0679,14.0679 0 0 1 -13.4209,0 z m 12.2793,-1.47559 a 10.19654,10.19654 0 0 0 3.8828,-3.93506 12.15768,12.15768 0 0 0 0,-11.34814 10.19986,10.19986 0 0 0 -3.8828,-3.93506 11.60738,11.60738 0 0 0 -11.1367,0 10.19314,10.19314 0 0 0 -3.8828,3.93506 12.15775,12.15775 0 0 0 0,11.34814 10.18983,10.18983 0 0 0 3.8828,3.93506 11.60738,11.60738 0 0 0 11.1367,0 z m -10.9795,-3.49609 v -0.87842 l 0.1758,-0.14014 h 0.5977 a 0.78274,0.78274 0 0 0 0.7373,-0.73779 v -9.27539 a 0.78276,0.78276 0 0 0 -0.7373,-0.7378 h -0.5977 l -0.1758,-0.14062 v -0.87842 l 0.1758,-0.14062 h 5.2002 a 5.69368,5.69368 0 0 1 3.5137,0.98388 3.31647,3.31647 0 0 1 1.2998,2.81055 3.396,3.396 0 0 1 -1.002,2.4419 4.2143,4.2143 0 0 1 -2.5469,1.24707 l 1.1943,0.35156 2.3194,3.65381 a 0.79967,0.79967 0 0 0 0.667,0.42187 h 0.5976 l 0.1406,0.14014 v 0.87842 l -0.1406,0.14062 h -3.0566 l -0.2109,-0.14062 -3.2325,-5.37549 h -0.7724 v 3.61914 a 0.78478,0.78478 0 0 0 0.7373,0.73779 h 0.5976 l 0.1758,0.14014 v 0.87842 l -0.1758,0.14062 h -5.3056 z m 5.0244,-6.53467 a 2.56691,2.56691 0 0 0 1.8975,-0.66748 2.61949,2.61949 0 0 0 0.667,-1.93262 2.79653,2.79653 0 0 0 -0.6319,-1.91455 2.13468,2.13468 0 0 0 -1.6865,-0.72022 h -0.3867 a 0.7848,0.7848 0 0 0 -0.7373,0.7378 v 4.49708 z"
            fill="#00684a"
            id="path101"/>
</svg>
