<?xml version="1.0" encoding="UTF-8" standalone="no"?>
<svg
   viewBox="0 0 412.02505 132"
   version="1.1"
   id="svg566"
   sodipodi:docname="plotly-stripe.svg"
   width="412.02505"
   height="132"
   inkscape:version="1.2.1 (9c6d41e410, 2022-07-14)"
   xmlns:inkscape="http://www.inkscape.org/namespaces/inkscape"
   xmlns:sodipodi="http://sodipodi.sourceforge.net/DTD/sodipodi-0.dtd"
   xmlns="http://www.w3.org/2000/svg"
   xmlns:svg="http://www.w3.org/2000/svg"
   xmlns:rdf="http://www.w3.org/1999/02/22-rdf-syntax-ns#"
   xmlns:cc="http://creativecommons.org/ns#"
   xmlns:dc="http://purl.org/dc/elements/1.1/">
  <sodipodi:namedview
     id="namedview568"
     pagecolor="#505050"
     bordercolor="#ffffff"
     borderopacity="1"
     inkscape:showpageshadow="0"
     inkscape:pageopacity="0"
     inkscape:pagecheckerboard="1"
     inkscape:deskcolor="#505050"
     showgrid="false"
     inkscape:zoom="2.8326087"
     inkscape:cx="205.99386"
     inkscape:cy="66.016884"
     inkscape:window-width="1920"
     inkscape:window-height="1043"
     inkscape:window-x="0"
     inkscape:window-y="0"
     inkscape:window-maximized="1"
     inkscape:current-layer="svg566" />
  <defs
     id="defs523">
    <style
       id="style521">
      .cls-1 {
        fill: none;
      }

      .cls-2 {
        fill: #119dff;
      }

      .cls-3 {
        fill: #506784;
      }

      .cls-4 {
        fill: #25fefd;
      }

      .cls-5 {
        fill: #fff;
      }
    </style>
  </defs>
  <title
     id="title525">plotly-logo-stripe-01</title>
  <g
     id="background"
     transform="translate(-24,-24)">
    <rect
       class="cls-2"
       x="24"
       y="24"
       width="132"
       height="132"
       rx="6"
       ry="6"
       id="rect529" />
  </g>
  <g
     id="word_mark"
     data-name="word mark"
     transform="translate(-24,-24)">
    <rect
       class="cls-3"
       x="240"
       y="48"
       width="12"
       height="72"
       rx="6"
       ry="6"
       id="rect532" />
    <rect
       class="cls-3"
       x="366"
       y="48"
       width="12"
       height="72"
       rx="6"
       ry="6"
       id="rect534" />
    <path
       class="cls-3"
       d="M 204,60 A 22.71,22.71 0 0 0 191.55,63.73 6,6 0 0 0 180,66 v 60 a 6,6 0 0 0 12,0 v -9.45 a 22.67,22.67 0 0 0 12,3.45 c 13.25,0 24,-11.51 24,-25.71 V 85.71 C 228,71.51 217.25,60 204,60 Z m 12,34.91 c 0,7.23 -5.37,13.09 -12,13.09 -6.63,0 -12,-5.86 -12,-13.09 V 85.09 C 192,77.86 197.37,72 204,72 c 6.63,0 12,5.86 12,13.09 z"
       id="path536" />
    <path
       class="cls-3"
       d="m 288,60 v 0 c -13.25,0 -24,11.51 -24,25.71 v 8.57 c 0,14.2 10.75,25.71 24,25.71 v 0 c 13.25,0 24,-11.51 24,-25.71 V 85.71 C 312,71.51 301.25,60 288,60 Z m 12,34.91 c 0,7.23 -5.37,13.09 -12,13.09 -6.63,0 -12,-5.86 -12,-13.09 V 85.09 C 276,77.86 281.37,72 288,72 c 6.63,0 12,5.86 12,13.09 z"
       id="path538" />
    <path
       class="cls-3"
       d="M 348,108 A 12,12 0 0 1 336,96 V 72 h 12 a 6,6 0 0 0 0,-12 h -12 v -6 a 6,6 0 0 0 -12,0 v 42 a 24,24 0 0 0 24,24 6,6 0 0 0 0,-12 z"
       id="path540" />
    <path
       class="cls-3"
       d="m 432.28,60.49 a 6,6 0 0 0 -7.88,3.15 l -12.4,29.02 -12.44,-29 a 6,6 0 1 0 -11,4.73 l 16.94,39.52 -2,4.7 a 12,12 0 0 1 -10.81,7.4 6.0004083,6.0004083 0 0 0 0.14,12 h 0.14 a 24,24 0 0 0 21.58,-14.73 l 21,-48.89 a 6,6 0 0 0 -3.27,-7.9 z"
       id="path542" />
  </g>
  <g
     id="symbol"
     transform="translate(-24,-24)">
    <circle
       class="cls-4"
       cx="102"
       cy="78"
       r="6"
       id="circle545" />
    <circle
       class="cls-4"
       cx="126"
       cy="54"
       r="6"
       id="circle547" />
    <circle
       class="cls-4"
       cx="102"
       cy="54"
       r="6"
       id="circle549" />
    <circle
       class="cls-4"
       cx="78"
       cy="54"
       r="6"
       id="circle551" />
    <circle
       class="cls-4"
       cx="54"
       cy="54"
       r="6"
       id="circle553" />
    <circle
       class="cls-4"
       cx="54"
       cy="78"
       r="6"
       id="circle555" />
    <path
       class="cls-5"
       d="m 54,96 a 6,6 0 0 0 -6,6 v 24 a 6,6 0 0 0 12,0 v -24 a 6,6 0 0 0 -6,-6 z"
       id="path557" />
    <path
       class="cls-5"
       d="m 102,96 a 6,6 0 0 0 -6,6 v 24 a 6,6 0 0 0 12,0 v -24 a 6,6 0 0 0 -6,-6 z"
       id="path559" />
    <path
       class="cls-5"
       d="m 78,72 a 6,6 0 0 0 -6,6 v 48 a 6,6 0 0 0 12,0 V 78 a 6,6 0 0 0 -6,-6 z"
       id="path561" />
    <path
       class="cls-5"
       d="m 126,72 a 6,6 0 0 0 -6,6 v 48 a 6,6 0 0 0 12,0 V 78 a 6,6 0 0 0 -6,-6 z"
       id="path563" />
  </g>
  <metadata
     id="metadata570">
    <rdf:RDF>
      <cc:Work
         rdf:about="">
        <dc:title>plotly-logo-stripe-01</dc:title>
      </cc:Work>
    </rdf:RDF>
  </metadata>
</svg>
