<?xml version="1.0" encoding="UTF-8" standalone="no"?>
<svg
   viewBox="0 0 247.07065 236.33037"
   version="1.1"
   id="svg168"
   sodipodi:docname="plotly.svg"
   width="247.07065"
   height="236.33037"
   inkscape:version="1.2.1 (9c6d41e410, 2022-07-14)"
   xmlns:inkscape="http://www.inkscape.org/namespaces/inkscape"
   xmlns:sodipodi="http://sodipodi.sourceforge.net/DTD/sodipodi-0.dtd"
   xmlns="http://www.w3.org/2000/svg"
   xmlns:svg="http://www.w3.org/2000/svg"
   xmlns:rdf="http://www.w3.org/1999/02/22-rdf-syntax-ns#"
   xmlns:cc="http://creativecommons.org/ns#"
   xmlns:dc="http://purl.org/dc/elements/1.1/">
  <sodipodi:namedview
     id="namedview170"
     pagecolor="#505050"
     bordercolor="#ffffff"
     borderopacity="1"
     inkscape:showpageshadow="0"
     inkscape:pageopacity="0"
     inkscape:pagecheckerboard="1"
     inkscape:deskcolor="#505050"
     showgrid="false"
     inkscape:zoom="3.0669014"
     inkscape:cx="121.78416"
     inkscape:cy="118.36051"
     inkscape:window-width="1920"
     inkscape:window-height="1043"
     inkscape:window-x="0"
     inkscape:window-y="0"
     inkscape:window-maximized="1"
     inkscape:current-layer="svg168" />
  <defs
     id="defs127">
    <style
       id="style125">
      .cls-1 {
        fill: #119dff;
      }

      .cls-2 {
        fill: #506784;
      }

      .cls-3 {
        fill: #25fefd;
      }

      .cls-4 {
        fill: #fff;
      }
    </style>
  </defs>
  <title
     id="title129">plotly-logo-01-square</title>
  <g
     id="background"
     transform="translate(-23.45,-23.82)">
    <rect
       class="cls-1"
       x="80.790001"
       y="23.82"
       width="132"
       height="132"
       rx="6"
       ry="6"
       id="rect131" />
  </g>
  <g
     id="word_mark"
     data-name="word mark"
     transform="translate(-23.45,-23.82)">
    <rect
       class="cls-2"
       x="80.860001"
       y="179.82001"
       width="11.48"
       height="68.879997"
       rx="5.7399998"
       ry="5.7399998"
       id="rect134" />
    <rect
       class="cls-2"
       x="201.78999"
       y="179.82001"
       width="11.48"
       height="68.879997"
       rx="5.7399998"
       ry="5.7399998"
       id="rect136" />
    <path
       class="cls-2"
       d="M 46.41,191.3 A 21.73,21.73 0 0 0 34.5,194.86 5.74,5.74 0 0 0 23.45,197 v 57.4 a 5.74,5.74 0 0 0 11.48,0 v -9 a 21.69,21.69 0 0 0 11.48,3.3 c 12.68,0 23,-11 23,-24.6 v -8.2 c -0.04,-13.59 -10.31,-24.6 -23,-24.6 z m 11.48,33.4 c 0,6.92 -5.14,12.52 -11.48,12.52 -6.34,0 -11.48,-5.61 -11.48,-12.52 v -9.4 c 0,-6.92 5.14,-12.52 11.48,-12.52 6.34,0 11.48,5.61 11.48,12.52 z"
       id="path138" />
    <path
       class="cls-2"
       d="m 126.78,191.3 v 0 c -12.68,0 -23,11 -23,24.6 v 8.2 c 0,13.59 10.28,24.6 23,24.6 v 0 c 12.68,0 23,-11 23,-24.6 v -8.2 c -0.04,-13.59 -10.32,-24.6 -23,-24.6 z m 11.48,33.4 c 0,6.92 -5.14,12.52 -11.48,12.52 -6.34,0 -11.48,-5.61 -11.48,-12.52 v -9.4 c 0,-6.92 5.14,-12.52 11.48,-12.52 6.34,0 11.48,5.61 11.48,12.52 z"
       id="path140" />
    <path
       class="cls-2"
       d="M 184.18,237.22 A 11.49,11.49 0 0 1 172.7,225.74 v -23 h 11.48 a 5.74,5.74 0 0 0 0,-11.48 H 172.7 v -5.74 a 5.74,5.74 0 0 0 -11.48,0 v 40.18 a 23,23 0 0 0 23,23 5.74,5.74 0 0 0 0,-11.48 z"
       id="path142" />
    <path
       class="cls-2"
       d="m 267.07,191.76 a 5.74,5.74 0 0 0 -7.54,3 l -11.9,27.76 -11.9,-27.76 a 5.74,5.74 0 1 0 -10.55,4.52 l 16.21,37.81 -1.93,4.5 a 11.5,11.5 0 0 1 -10.34,7.08 5.740368,5.740368 0 0 0 0.13,11.48 h 0.14 A 23,23 0 0 0 250,246.07 l 20.05,-46.77 a 5.74,5.74 0 0 0 -2.98,-7.54 z"
       id="path144" />
  </g>
  <g
     id="symbol"
     transform="translate(-23.45,-23.82)">
    <circle
       class="cls-3"
       cx="158.78999"
       cy="77.82"
       r="6"
       id="circle147" />
    <circle
       class="cls-3"
       cx="182.78999"
       cy="53.82"
       r="6"
       id="circle149" />
    <circle
       class="cls-3"
       cx="158.78999"
       cy="53.82"
       r="6"
       id="circle151" />
    <circle
       class="cls-3"
       cx="134.78999"
       cy="53.82"
       r="6"
       id="circle153" />
    <circle
       class="cls-3"
       cx="110.79"
       cy="53.82"
       r="6"
       id="circle155" />
    <circle
       class="cls-3"
       cx="110.79"
       cy="77.82"
       r="6"
       id="circle157" />
    <path
       class="cls-4"
       d="m 110.79,95.82 a 6,6 0 0 0 -6,6 v 24 a 6,6 0 1 0 12,0 v -24 a 6,6 0 0 0 -6,-6 z"
       id="path159" />
    <path
       class="cls-4"
       d="m 158.79,95.82 a 6,6 0 0 0 -6,6 v 24 a 6,6 0 1 0 12,0 v -24 a 6,6 0 0 0 -6,-6 z"
       id="path161" />
    <path
       class="cls-4"
       d="m 134.79,71.82 a 6,6 0 0 0 -6,6 v 48 a 6,6 0 1 0 12,0 v -48 a 6,6 0 0 0 -6,-6 z"
       id="path163" />
    <path
       class="cls-4"
       d="m 182.79,71.82 a 6,6 0 0 0 -6,6 v 48 a 6,6 0 0 0 12,0 v -48 a 6,6 0 0 0 -6,-6 z"
       id="path165" />
  </g>
  <metadata
     id="metadata399">
    <rdf:RDF>
      <cc:Work
         rdf:about="">
        <dc:title>plotly-logo-01-square</dc:title>
      </cc:Work>
    </rdf:RDF>
  </metadata>
</svg>
